<svg xmlns="http://www.w3.org/2000/svg" xmlns:xlink="http://www.w3.org/1999/xlink" version="1.1" x="0px" y="0px" viewBox="0 0 100 125" enable-background="new 0 0 100 100" xml:space="preserve"><path d="M65.846,94.573c0,2.898-5.255,5.222-11.646,5.222H41.244c-6.44,0-11.627-2.323-11.627-5.222V42.689  c0-2.862,5.187-5.195,11.627-5.195H54.2c6.391,0,11.646,2.333,11.646,5.195V94.573z"/><g><path d="M49.912,10.963c1.084,1.042,2.806,1.008,3.849-0.077c1.043-1.086,1.007-2.807-0.079-3.848   c-1.087-1.045-2.806-1.01-3.849,0.076S48.825,9.919,49.912,10.963z"/><g><path d="M50.383,5.912C56.006-6.561,81.554,13.998,82.279,0c5.574,4.956-4.182,13.459-8.619,14.765    c-3.224,0.875-8.271,1.585-11.736,0.642c-2.862-1.161-4.533-3.555-7.186-4.51L50.383,5.912z"/></g></g><path d="M41.549,46.168c0.626,0.773,0.357,2.025-0.597,2.797l-4.32,3.495c-0.956,0.771-2.235,0.771-2.861-0.003L8.864,21.651  c-0.626-0.773-0.357-2.025,0.597-2.797l4.322-3.494c0.954-0.773,2.235-0.771,2.859,0.003L41.549,46.168z"/><path d="M61.817,51.968c-0.601,0.792-1.881,0.832-2.858,0.089l-4.425-3.359c-0.978-0.741-1.282-1.987-0.682-2.779L77.81,14.37  c0.604-0.792,1.883-0.833,2.858-0.09l4.427,3.36c0.978,0.742,1.283,1.986,0.68,2.778L61.817,51.968z"/><path d="M47.15,8.455c-7.922,0-14.347,6.418-14.347,14.333c0,7.921,6.424,14.338,14.347,14.338c7.907,0,14.328-6.417,14.328-14.338  C61.478,14.873,55.057,8.455,47.15,8.455z M55.012,29.226c-1.148,0.766-6.296,7.921-16.349-0.203c0,0,0.305-1.625,1.624-1.523  c1.32,0.102,5.79,7.413,13.709-0.102C53.996,27.398,55.926,28.617,55.012,29.226z"/><text x="0" y="115" fill="#000000" font-size="5px" font-weight="bold" font-family="'Helvetica Neue', Helvetica, Arial-Unicode, Arial, Sans-serif">Created by Shreya Chakravarty</text><text x="0" y="120" fill="#000000" font-size="5px" font-weight="bold" font-family="'Helvetica Neue', Helvetica, Arial-Unicode, Arial, Sans-serif">from the Noun Project</text></svg>