<svg xmlns="http://www.w3.org/2000/svg" xmlns:xlink="http://www.w3.org/1999/xlink" version="1.1" x="0px" y="0px" viewBox="0 0 100 125" enable-background="new 0 0 100 100" xml:space="preserve"><g><path d="M90.117,54.926l-6.773,9.642c-0.122,0.184-0.122,0.244-0.122,0.366l0.671,6.103c0.062,0.427,0,0.61-0.061,1.037   l-1.159,3.967c-0.854,0.854-1.282,1.892-1.282,3.112h7.507l2.685-7.079c0.062-0.366,0.184-0.671,0.184-1.037L90.85,55.17   C90.85,54.804,90.423,54.56,90.117,54.926z"/><path d="M90.117,41.622C74.678,38.753,70.04,30.942,55.028,30.942c-1.893-2.807-2.868-6.713-5.614-8.299   c-2.991-1.587-6.225-2.197-9.703-1.526c-2.503,0.732-2.686,4.211-3.784,6.53l-2.196,2.502c-0.55,2.868-2.015,8.36-3.296,15.012   c-7.628,2.014-15.134,0.061-18.186-7.079c-0.366-0.977-0.732-1.404-1.159-1.404c-0.428,0-0.55,0.671-0.306,1.892   c1.525,5.798,5.92,9.032,11.229,10.008c-6.773,1.404-12.937-0.976-15.439-7.689c-0.366-1.038-0.671-1.465-1.098-1.465   s-0.61,0.671-0.366,1.892C7.672,51.264,18.84,54.62,29.092,51.752l-0.244,1.831c-0.732,6.103,2.015,13.67,0.122,19.345   c-0.427,1.281,2.319,0.61,2.93,0c2.136-5.797,0.854-13.304,1.831-19.527c0.183-1.282,0.365-2.563,0.854-3.845l-0.122,1.099   c0,0.976,2.319,1.464,3.234-0.183c0.779-1.403,2.327-0.52,3.219-0.284l1.48,5.714l-2.929,9.521   c-0.366,1.159-0.122,2.441,0.61,3.356l3.661,4.699c0,1.342,1.343,3.051,2.136,3.723l4.699-5.92l-3.112-4.699   c-0.306-0.366-0.366-0.671-0.184-1.221l2.319-5.675l4.882,7.445c0.306,0.427,0.306,0.732,0.306,1.159l-1.343,7.75   c-0.55,0.916-0.854,2.319-0.854,3.112h8.056l3.051-11.411c0.122-0.306,0.184-0.672,0-0.977l-1.525-3.967l-1.77-4.76l0.854,0.122   l2.014,4.76c3.173,1.525,6.773,1.525,9.703,0.854l-0.366,0.671c-1.038,1.647-2.441,3.234-2.441,5.31L70.04,76.04   c-0.488,0.977-0.732,2.319-0.732,3.112h9.276l-0.062-8.727c0-0.427,0.062-0.793,0.306-1.099l4.333-6.041l6.896-9.459   c0.366-0.61,0.61-1.403,0.61-2.197l-0.244-5.37c1.587-0.061,0.427,3.112,2.746,12.571C93.413,59.686,95,59.38,95,58.526   C93.413,48.701,94.756,42.415,90.117,41.622z M11.395,38.205c2.014,6.408,9.459,9.52,16.782,8.727   c-0.854,0.488-2.808,0.976-4.027,1.342C17.985,47.664,12.859,44.002,11.395,38.205z M36.232,46.748   C25.003,54.804,8.771,52.912,5.78,41.195c4.516,10.679,19.711,11.229,29.292,2.807C36.537,42.903,37.392,46.138,36.232,46.748z    M38.917,33.444c-0.671,0-1.159-0.366-1.159-0.732c0-0.427,0.488-0.793,1.159-0.793c0.61,0,1.16,0.366,1.16,0.793   C40.077,33.078,39.527,33.444,38.917,33.444z"/></g><text x="0" y="115" fill="#000000" font-size="5px" font-weight="bold" font-family="'Helvetica Neue', Helvetica, Arial-Unicode, Arial, Sans-serif">Created by Jason Dilworth</text><text x="0" y="120" fill="#000000" font-size="5px" font-weight="bold" font-family="'Helvetica Neue', Helvetica, Arial-Unicode, Arial, Sans-serif">from the Noun Project</text></svg>